<svg width="42" height="55" viewBox="0 0 42 55" fill="none" xmlns="http://www.w3.org/2000/svg">
<path d="M13.0611 44.0108C13.0611 45.2008 12.1371 45.2708 11.3391 45.2708H11.1151C10.8211 45.2708 10.6951 45.3968 10.6951 45.6908V46.1388C10.6951 46.4328 10.8211 46.5588 11.1151 46.5588H11.8011C12.9491 46.5588 13.5091 47.1188 13.5091 47.9588C13.5091 49.0648 12.7811 49.4008 11.9131 49.4008C11.2271 49.4008 10.3731 49.2328 9.96715 49.1208C9.70115 49.0368 9.51915 49.1208 9.43515 49.4008L9.23915 50.1428C9.15515 50.4228 9.28115 50.6048 9.54715 50.6888C10.3451 50.9268 11.2551 51.0388 12.0671 51.0388C14.1111 51.0388 15.3851 49.9048 15.3851 47.9868C15.3851 47.0908 14.9651 46.2088 13.7611 45.7468C14.6291 45.3688 14.9371 44.4588 14.9371 43.7868C14.9371 42.3308 13.9711 41.3368 12.1511 41.3368C11.3531 41.3368 10.3731 41.4768 9.63115 41.7568C9.35115 41.8688 9.29515 42.0368 9.36515 42.3168L9.54715 42.9468C9.63115 43.2268 9.84115 43.2968 10.0651 43.2268C10.2331 43.1708 10.9611 42.9468 11.6751 42.9468C12.4171 42.9468 13.0611 43.2268 13.0611 44.0108ZM18.3075 50.0308C18.3075 49.8768 18.2795 49.7088 18.2515 49.5968C18.1955 49.3868 18.0135 49.2328 17.7195 49.2328H16.9495C16.6555 49.2328 16.5995 49.3588 16.6695 49.6248C16.7255 49.8348 16.7675 50.0028 16.7675 50.2408C16.7675 51.0528 16.3335 51.7388 15.9275 52.2708C15.7455 52.4948 15.7595 52.6488 16.0395 52.6488H16.6415C16.9355 52.6488 17.2155 52.5088 17.4255 52.2708C17.8315 51.7948 18.3075 51.0388 18.3075 50.0308ZM22.7144 51.0248C24.8984 51.0248 25.9204 49.4288 25.9204 47.6088C25.9204 45.4808 24.8424 44.5568 23.4284 44.5568C22.8824 44.5568 22.2104 44.5848 21.6924 44.9488C21.9724 43.5628 22.8264 43.0448 23.7644 43.0448C24.0584 43.0448 24.3664 43.0728 24.5624 43.1008C24.8844 43.1428 25.0664 43.0728 25.1504 42.7928L25.3744 42.1208C25.4584 41.8408 25.3744 41.6588 25.1084 41.5748C24.6044 41.4208 24.0864 41.3368 23.6384 41.3368C21.2584 41.3368 19.5224 43.2128 19.5224 46.8948C19.5224 50.0448 20.9224 51.0248 22.7144 51.0248ZM21.5664 46.4188C21.9584 46.2648 22.3364 46.1808 22.6864 46.1808C23.4424 46.1808 24.0024 46.5868 24.0024 47.6088C24.0024 48.7288 23.5684 49.4008 22.7564 49.4008C22.0004 49.4008 21.4684 48.8128 21.5664 46.4188ZM33.2602 49.6528C33.2602 49.3588 33.1342 49.2328 32.8402 49.2328H29.3542V41.9248C29.3542 41.6308 29.2282 41.5048 28.9342 41.5048H27.6882C27.3942 41.5048 27.2682 41.6308 27.2682 41.9248V50.4368C27.2682 50.7308 27.3942 50.8568 27.6882 50.8568H32.8402C33.1342 50.8568 33.2602 50.7308 33.2602 50.4368V49.6528Z" fill="white"/>
<path d="M5.88134 27L3.36308 9.32434H39.6756L36.15 27H5.88134Z" stroke="white" stroke-width="2"/>
<path d="M2.93732 4.02708L1.37591 8.83789H40.6241L39.0627 4.02708H2.93732Z" stroke="white" stroke-width="2"/>
<path d="M8.38437 0.99995L6.37121 2.02698H35.6288L33.6156 0.99995H8.38437Z" stroke="white" stroke-width="2"/>
</svg>
