<svg width="38" height="77" viewBox="0 0 38 77" fill="none" xmlns="http://www.w3.org/2000/svg">
<path d="M12.8401 72.8428C13.1341 72.8428 13.2601 72.7168 13.2601 72.4228V63.9248C13.2601 63.6308 13.1341 63.5048 12.8401 63.5048H12.1681C11.8741 63.5048 11.6361 63.5468 11.3561 63.6588L9.20008 64.5548C8.92008 64.6808 8.83608 64.8488 8.92008 65.1288L9.03208 65.4928C9.10208 65.7728 9.27008 65.8708 9.55008 65.8008L11.3141 65.3528V72.4228C11.3141 72.7168 11.4401 72.8428 11.7341 72.8428H12.8401ZM14.6555 72.1708C14.5855 72.4508 14.6975 72.6328 14.9635 72.7168C15.4395 72.8568 16.0555 72.9828 17.1335 72.9828C19.2335 72.9828 20.9695 71.7788 20.9695 69.7068C20.9695 67.7328 19.8495 66.7388 18.0155 66.7388C17.6515 66.7388 17.2595 66.7388 16.8395 66.8508V65.1148H20.0595C20.3535 65.1148 20.4795 64.9888 20.4795 64.6948V63.9108C20.4795 63.6168 20.3535 63.4908 20.0595 63.4908H15.5375C15.2435 63.4908 15.1175 63.6168 15.1175 63.9108V67.6488C15.1175 67.9428 15.1875 68.1388 15.3555 68.2928C15.5515 68.4748 15.7895 68.5308 16.0415 68.4468C16.4055 68.3348 16.8115 68.2228 17.3435 68.2228C18.6875 68.2228 19.0375 69.0768 19.0375 69.7768C19.0375 70.7708 18.2675 71.4008 16.9235 71.4008C16.0835 71.4008 15.6635 71.3028 15.3555 71.2328C15.0475 71.1488 14.8935 71.2608 14.8235 71.5268L14.6555 72.1708ZM28.2993 71.6528C28.2993 71.3588 28.1733 71.2328 27.8793 71.2328H24.3933V63.9248C24.3933 63.6308 24.2673 63.5048 23.9733 63.5048H22.7273C22.4333 63.5048 22.3073 63.6308 22.3073 63.9248V72.4368C22.3073 72.7308 22.4333 72.8568 22.7273 72.8568H27.8793C28.1733 72.8568 28.2993 72.7308 28.2993 72.4368V71.6528Z" fill="white"/>
<path d="M5.43795 49L3.06616 12H35.4062L32.0857 49H5.43795Z" stroke="white" stroke-width="2"/>
<path d="M2.80217 5L1.24662 12H36.7534L35.1978 5H2.80217Z" stroke="white" stroke-width="2"/>
<path d="M7.70001 1L5.0158 3H32.9842L30.3 1H7.70001Z" stroke="white" stroke-width="2"/>
</svg>
