<svg width="93" height="209" viewBox="0 0 93 209" fill="none" xmlns="http://www.w3.org/2000/svg">
<g clip-path="url(#clip0_12_68)">
<path d="M-0.113312 36.615C-47.4629 36.615 -85.9769 75.2766 -85.9769 122.808C-85.9769 170.339 -47.4629 209 -0.113312 209C47.4628 209 85.9768 170.566 85.9768 122.808C85.9768 75.2766 47.4628 36.615 -0.113312 36.615Z" fill="#B34FC5" fill-opacity="0.6"/>
<path d="M-0.113266 0C-51.3142 0 -93 41.8455 -93 93.2426C-93 144.867 -51.3142 186.485 -0.113266 186.485C51.3143 186.485 92.7735 144.64 92.7735 93.2426C93 41.8455 51.3143 0 -0.113266 0ZM-0.113266 173.75C-44.2911 173.75 -80.313 137.817 -80.313 93.2426C-80.313 48.8955 -44.2911 12.7356 -0.113266 12.7356C44.2911 12.7356 80.0865 48.6681 80.0865 93.2426C80.0865 137.817 44.2911 173.75 -0.113266 173.75Z" fill="white"/>
</g>
<defs>
<clipPath id="clip0_12_68">
<rect width="186" height="209" fill="white" transform="translate(-93)"/>
</clipPath>
</defs>
</svg>
