<svg width="79" height="67" viewBox="0 0 79 67" fill="none" xmlns="http://www.w3.org/2000/svg">
<g clip-path="url(#clip0_605_47)">
<path d="M29.98 39.11C32.2333 39.11 34.06 37.2833 34.06 35.03C34.06 32.7767 32.2333 30.95 29.98 30.95C27.7267 30.95 25.9 32.7767 25.9 35.03C25.9 37.2833 27.7267 39.11 29.98 39.11Z" fill="#39B2C4"/>
<path d="M61.0601 47.91V19.71" stroke="#39B2C4" stroke-width="3" stroke-linecap="round" stroke-linejoin="round"/>
<path d="M6.35999 19.71V55.55C6.35999 60.87 18.6 65.18 33.71 65.18C46.73 65.18 57.63 61.98 60.39 57.69" stroke="#39B2C4" stroke-width="3" stroke-linecap="round" stroke-linejoin="round"/>
<path d="M66.41 33.17C72.58 37.81 76.65 43.08 76.78 47.32C76.98 54.38 66.17 55.93 52.64 50.79C42.6 46.98 33.88 40.55 29.97 34.6" stroke="#39B2C4" stroke-width="3" stroke-linecap="round" stroke-linejoin="round"/>
<path d="M25.14 24.04C11.51 22.7 1.5 18.25 1.5 12.97C1.5 6.64 15.92 1.5 33.71 1.5C51.5 1.5 65.92 6.64 65.92 12.97C65.92 16.7 60.92 20.02 53.18 22.11" stroke="#39B2C4" stroke-width="3" stroke-linecap="round" stroke-linejoin="round"/>
<path d="M57.76 12.26C57.76 13.65 55.56 15.04 51.84 15.89C47.94 16.79 47.54 21.12 47.45 22.5C47.31 24.64 47.37 26.98 47.74 28.81C47.78 28.99 47.81 29.19 47.85 29.36L48.35 31.33C48.99 33.86 47.4 36.28 44.8 36.47C41.95 36.68 39.85 33.99 40.64 31.32L40.66 31.22C42.35 25.61 38.56 26.4 36.47 26.28C31.69 25.99 30.73 23.41 30.09 20.88C29.63 19.08 28.27 17.66 26.42 17.52C16.71 16.81 9.67999 14.72 9.67999 12.25" stroke="#39B2C4" stroke-width="2.5" stroke-linecap="round" stroke-linejoin="round"/>
</g>
<defs>
<clipPath id="clip0_605_47">
<rect width="78.28" height="66.68" fill="white"/>
</clipPath>
</defs>
</svg>
