<svg width="67" height="64" viewBox="0 0 67 64" fill="none" xmlns="http://www.w3.org/2000/svg">
<g clip-path="url(#clip0_605_2)">
<path d="M61.3598 37.264C58.3788 38.4444 53.528 39.292 47.8495 39.5534" stroke="#37BEC8" stroke-width="2.5" stroke-linecap="round" stroke-linejoin="round"/>
<path d="M64.1876 31.592C65.2605 32.2575 65.8505 32.9863 65.8505 33.7468V42.9043C65.8505 45.7482 57.6662 48.101 47.0525 48.4654" stroke="#37BEC8" stroke-width="3" stroke-linecap="round" stroke-linejoin="round"/>
<path d="M61.5898 23.7812C58.1719 25.1992 52.0643 26.1736 45.0294 26.2449" stroke="#37BEC8" stroke-width="2.5" stroke-linecap="round" stroke-linejoin="round"/>
<path d="M64.1416 18.0934C65.2375 18.7667 65.8505 19.5035 65.8505 20.2798V29.4374C65.8505 32.2179 58.0187 34.5311 47.7499 34.9747" stroke="#37BEC8" stroke-width="3" stroke-linecap="round" stroke-linejoin="round"/>
<path d="M42.6308 21.5631C43.1289 21.571 43.627 21.5789 44.1328 21.5789C56.1335 21.5789 65.8582 19.0677 65.8582 15.9624V6.80483C65.8582 3.70742 56.1335 1.18829 44.1328 1.18829C32.1321 1.18829 22.4074 3.6995 22.4074 6.80483V12.865" stroke="#37BEC8" stroke-width="3" stroke-linecap="round" stroke-linejoin="round"/>
<path d="M61.4518 9.13383C57.8577 10.5835 51.4436 11.55 44.1328 11.55C36.822 11.55 30.247 10.5598 26.6835 9.0863" stroke="#37BEC8" stroke-width="2.5" stroke-linecap="round" stroke-linejoin="round"/>
<path d="M26.5763 17.1348H17.8861C8.64419 17.1348 1.14951 27.3539 1.14951 39.9733C1.14951 52.5927 8.64419 62.8118 17.8861 62.8118H26.5763C35.8182 62.8118 43.3128 52.5848 43.3128 39.9733C43.3128 27.3618 35.8182 17.1348 26.5763 17.1348V17.1348Z" stroke="#37BEC8" stroke-width="3" stroke-linecap="round" stroke-linejoin="round"/>
<path d="M32.339 46.287C32.339 44.465 31.9099 43.0311 31.0593 41.9696C30.2087 40.9081 28.9059 40.0208 27.1433 39.3158C25.7793 38.7375 24.8367 38.1196 24.3156 37.4779C23.7945 36.8363 23.5263 35.9887 23.5263 34.943C23.5263 33.7943 23.7792 32.8833 24.2849 32.2258C24.7907 31.5683 25.557 31.2356 26.5686 31.2356C27.5265 31.2356 28.2698 31.6634 28.8139 32.511C29.358 33.3586 29.6262 34.4677 29.6262 35.8381C29.6416 36.6937 30.1933 37.3908 30.8907 37.3908C31.588 37.3908 32.1398 36.7016 32.1475 35.8381H32.1551C32.1551 33.7626 31.7566 32.107 30.9597 30.8633C30.5612 30.2533 30.086 29.7621 29.5343 29.3898V25.0645C29.5343 24.3595 29.0745 23.7891 28.5151 23.7891C27.9556 23.7891 27.4959 24.3595 27.4959 25.0645V28.6372C26.8062 28.5343 26.1241 28.5739 25.7869 28.6056V25.0645C25.7869 24.3595 25.3271 23.7891 24.7677 23.7891C24.2083 23.7891 23.7485 24.3595 23.7485 25.0645V29.2631C23.1508 29.6037 22.6297 30.0632 22.2005 30.6494C21.3806 31.7663 20.9744 33.216 20.9744 34.9905C20.9744 36.765 21.4189 38.286 22.3078 39.3792C23.1968 40.4724 24.5072 41.3517 26.2467 42.0092C27.5112 42.5479 28.4154 43.1579 28.9672 43.8391C29.519 44.5204 29.7872 45.3522 29.7872 46.3186C29.7872 47.4911 29.473 48.41 28.8523 49.0675C28.2315 49.725 27.3579 50.0577 26.2467 50.0577C25.2812 50.0577 24.4612 49.7092 23.7945 49.0041C23.1278 48.2991 22.7753 46.9445 22.7753 45.2888C22.7753 44.4333 22.2235 43.7441 21.5415 43.7441C20.8595 43.7441 20.3077 44.4333 20.3077 45.2888V45.5423C20.277 47.7842 20.7292 49.4794 21.6794 50.636C22.2005 51.2777 22.8136 51.753 23.5033 52.0936V55.7376C23.5033 56.4347 23.9554 57.0051 24.5148 57.0051C25.0743 57.0051 25.5264 56.4347 25.5264 55.7376V52.664C25.9172 52.6798 26.7755 52.7036 27.2506 52.6481V55.7376C27.2506 56.4347 27.7028 57.0051 28.2622 57.0051C28.8216 57.0051 29.2737 56.4347 29.2737 55.7376V52.0619C29.9404 51.7292 30.5228 51.2856 30.998 50.6994C31.8869 49.6062 32.3314 48.1327 32.3314 46.287H32.339Z" fill="#37BEC8"/>
<path d="M17.227 58.9142C12.767 54.8107 9.83963 47.8554 9.83963 39.9653C9.83963 32.0753 12.9662 24.6684 17.6715 20.6283" stroke="#37BEC8" stroke-width="2.5" stroke-linecap="round" stroke-linejoin="round"/>
</g>
<defs>
<clipPath id="clip0_605_2">
<rect width="67" height="64" fill="white"/>
</clipPath>
</defs>
</svg>
