<svg width="70" height="89" viewBox="0 0 70 89" fill="none" xmlns="http://www.w3.org/2000/svg">
<g clip-path="url(#clip0_605_26)">
<path d="M24.8734 46.1632L16.962 38.3548L18.663 24.8073C18.663 24.8073 10.7278 17.9125 5.01581 13.0166C-0.704126 8.12074 1.6772 1.65539 1.6772 1.65539C1.6772 1.65539 8.21992 -0.694933 13.1883 4.95053C18.1566 10.596 25.1424 18.4278 25.1424 18.4278L38.8687 16.749L46.78 24.5574L24.8892 46.1632H24.8734Z" stroke="#37BEC8" stroke-width="3" stroke-linecap="round" stroke-linejoin="round"/>
<path d="M37.0253 21.1841L21.4636 36.5432" stroke="#37BEC8" stroke-width="2.5" stroke-linecap="round" stroke-linejoin="round"/>
<path d="M45.087 26.2206C52.7532 33.7869 59.6994 33.3574 59.6994 33.3574L47.8798 45.0232" stroke="#37BEC8" stroke-width="3" stroke-linecap="round" stroke-linejoin="round"/>
<path d="M7.30219 9.71367C8.70475 9.71367 9.84175 8.59147 9.84175 7.20718C9.84175 5.82288 8.70475 4.70068 7.30219 4.70068C5.89963 4.70068 4.76263 5.82288 4.76263 7.20718C4.76263 8.59147 5.89963 9.71367 7.30219 9.71367Z" fill="#37BEC8"/>
<path d="M31.78 67.4723C33.5627 67.4723 35.0079 66.046 35.0079 64.2865C35.0079 62.527 33.5627 61.1006 31.78 61.1006C29.9973 61.1006 28.5522 62.527 28.5522 64.2865C28.5522 66.046 29.9973 67.4723 31.78 67.4723Z" fill="#37BEC8"/>
<path d="M36.3607 55.9861C35.6013 56.0095 35.5063 56.0252 34.7389 56.0252C20.6645 56.0252 9.25632 52.0585 9.25632 47.1705C9.25632 45.1559 11.2025 43.2897 14.4699 41.8061" stroke="#37BEC8" stroke-width="3" stroke-linecap="round" stroke-linejoin="round"/>
<path d="M56.5269 42.5714C58.8687 43.9066 60.2136 45.4839 60.2136 47.1627C60.2136 50.044 56.2579 52.5973 50.1345 54.2137" stroke="#37BEC8" stroke-width="3" stroke-linecap="round" stroke-linejoin="round"/>
<path d="M56.3687 74.3436V52.324" stroke="#37BEC8" stroke-width="3" stroke-linecap="round" stroke-linejoin="round"/>
<path d="M13.0934 52.324V80.3092C13.0934 84.4633 22.7769 87.8287 34.731 87.8287C45.0316 87.8287 53.6551 85.33 55.8386 81.9802" stroke="#37BEC8" stroke-width="3" stroke-linecap="round" stroke-linejoin="round"/>
<path d="M60.6091 62.8341C65.4905 66.4572 68.7104 70.5722 68.8133 73.883C68.9715 79.3957 60.4193 80.606 49.7152 76.5925C41.7721 73.6175 34.8734 68.5967 31.78 63.9507" stroke="#37BEC8" stroke-width="3" stroke-linecap="round" stroke-linejoin="round"/>
<path d="M53.7579 46.5068C53.7579 47.5921 51.9937 48.5838 49.0744 49.3412C47.6187 49.716 46.5823 50.9888 46.4794 52.4724C46.3212 54.7602 46.3924 57.2745 46.788 59.2344C46.8275 59.4297 46.8592 59.6405 46.9066 59.8201L47.4842 62.0845C48.1804 64.8096 46.0997 67.4489 43.2516 67.4489C40.4035 67.4489 38.2357 64.6769 39.0664 61.9205L39.4778 60.5541C39.5886 60.1871 39.6756 59.8045 39.7626 59.414C40.1107 57.7899 40.2373 55.9705 40.2057 54.1902C40.1661 52.2694 38.5364 50.7545 36.5902 50.7936C35.981 50.8092 35.356 50.817 34.731 50.817C24.2247 50.817 15.7041 48.8805 15.7041 46.499" stroke="#37BEC8" stroke-width="2.5" stroke-linecap="round" stroke-linejoin="round"/>
</g>
<defs>
<clipPath id="clip0_605_26">
<rect width="70" height="89" fill="white"/>
</clipPath>
</defs>
</svg>
