<svg width="89" height="78" viewBox="0 0 89 78" fill="none" xmlns="http://www.w3.org/2000/svg">
<g clip-path="url(#clip0_605_76)">
<path d="M65.0869 44.0129L73.3509 49.7445C74.7297 51.1132 74.8072 53.4315 73.4285 54.7916L66.6983 61.4984C65.6298 62.5591 64.0097 62.8243 62.6568 62.1656L33.5991 47.9908C32.2461 47.3321 30.6261 47.6058 29.5575 48.658L24.9128 53.2689" stroke="#39B2C4" stroke-width="3" stroke-linecap="round" stroke-linejoin="round"/>
<path d="M72.0238 44.03C72.9631 40.822 72.334 37.751 70.1797 36.3395" stroke="#39B2C4" stroke-width="3" stroke-linecap="round" stroke-linejoin="round"/>
<path d="M70.1797 36.3395L38.149 14.2945C35.2105 12.3783 30.5571 14.2518 27.7393 18.4948C24.93 22.7293 25.0248 27.7251 27.9633 29.6413L59.994 51.6863C62.0966 53.055 65.0696 52.4904 67.629 50.5058" stroke="#39B2C4" stroke-width="3" stroke-linecap="round" stroke-linejoin="round"/>
<path d="M10.832 75.8015L26.2571 60.4889C27.8944 58.8635 27.2912 55.6299 24.9128 53.2689C22.5344 50.9079 19.277 50.309 17.6397 51.9344L2.21466 67.2555" stroke="#39B2C4" stroke-width="3" stroke-linecap="round" stroke-linejoin="round"/>
<path d="M7.57465 67.1529C8.23818 67.5122 8.8931 67.9998 9.4877 68.5901C11.8661 70.9511 12.4693 74.1847 10.832 75.8101" stroke="#39B2C4" stroke-width="2.5" stroke-linecap="round" stroke-linejoin="round"/>
<path d="M2.21468 67.2555C0.57738 68.8808 1.18059 72.1144 3.55898 74.4755C5.93737 76.8365 9.19473 77.4354 10.832 75.81" stroke="#39B2C4" stroke-width="3" stroke-linecap="round" stroke-linejoin="round"/>
<path d="M75.781 41.4294L84.6569 32.6183L86.9405 30.3514C88.2417 29.0596 88.2417 26.9638 86.9405 25.672C85.6392 24.3803 83.528 24.3803 82.2268 25.672L79.5554 28.3239L78.0387 29.8295C77.2632 30.5994 76.0137 30.5994 75.2381 29.8295C74.4625 29.0596 74.4625 27.8192 75.2381 27.0493L76.7548 25.5437L82.9506 19.393C84.2518 18.1013 84.2518 16.0055 82.9506 14.7137C81.6494 13.422 79.5382 13.422 78.2369 14.7137L72.0411 20.8644L70.5244 22.37C69.7488 23.1399 68.4993 23.1399 67.7238 22.37C66.9482 21.6001 66.9482 20.3597 67.7238 19.5898L69.6196 17.7078L70.5589 16.7754C71.8601 15.4836 71.8601 13.3878 70.5589 12.096C69.2577 10.8043 67.1464 10.8043 65.8452 12.096L64.9059 13.0285L63.0101 14.9105C62.2345 15.6804 60.985 15.6804 60.2094 14.9105C59.4339 14.1406 59.4339 12.9002 60.2094 12.1303L61.7261 10.6247L65.6125 6.76658C66.9137 5.47485 66.9137 3.379 65.6125 2.08727C64.3113 0.795537 62.2 0.795537 60.8988 2.08727L57.3916 5.56895L47.9556 14.9361" stroke="#39B2C4" stroke-width="2.5" stroke-linecap="round" stroke-linejoin="round"/>
<path d="M73.1355 9.53825C74.4367 10.83 76.5479 10.83 77.8491 9.53825L78.2456 9.14474L79.7622 7.63915L80.7015 6.70671C82.0027 5.41498 82.0027 3.31912 80.7015 2.02739C79.4003 0.735661 77.289 0.735661 75.9878 2.02739L75.0485 2.95983L73.5319 4.46543L73.1355 4.85893C71.8342 6.15066 71.8342 8.24652 73.1355 9.53825V9.53825Z" stroke="#39B2C4" stroke-width="2.5" stroke-linecap="round" stroke-linejoin="round"/>
<path d="M63.0446 37.1522C61.8381 37.982 60.7006 39.1283 59.77 40.5398C56.9607 44.7743 57.0555 49.7701 59.994 51.6863" stroke="#39B2C4" stroke-width="2.5" stroke-linecap="round" stroke-linejoin="round"/>
</g>
<defs>
<clipPath id="clip0_605_76">
<rect width="89" height="78" fill="white"/>
</clipPath>
</defs>
</svg>
