<svg width="278" height="60" viewBox="0 0 278 60" fill="none" xmlns="http://www.w3.org/2000/svg">
<path d="M231.216 22.8433C220.971 22.8433 212.637 31.1766 212.637 41.4217C212.637 51.6668 220.971 60.0001 231.216 60.0001C241.461 60.0001 249.794 51.6668 249.794 41.4217C249.794 31.1276 241.51 22.8433 231.216 22.8433Z" fill="#B34FC5"/>
<path d="M106.265 44.2157H105.726C103.226 44.2157 101.804 42.8431 101.804 40.4412V1.81373C101.804 0.833333 100.971 0 99.9904 0H92.6375C91.6571 0 90.8238 0.833333 90.8238 1.81373V42.3039C90.8238 50.1961 95.3336 54.2647 104.157 54.2647H106.265C107.245 54.2647 108.079 53.4314 108.079 52.451V46.0294C108.079 45.049 107.245 44.2157 106.265 44.2157ZM85.6277 44.2157H85.3826C83.6669 44.2157 82.2944 42.8431 82.2944 41.1274V17.6471C82.2944 16.6667 81.461 15.8333 80.4806 15.8333H73.0787C72.0983 15.8333 71.2649 16.6667 71.2649 17.6471V20.049C68.4218 16.8627 64.4022 14.902 59.6473 14.902C49.1081 14.902 41.1179 23.5784 41.1179 35C41.1179 46.4706 49.1081 55.098 59.6473 55.098C64.9904 55.098 69.3532 52.598 72.2944 48.6274C73.961 52.3039 77.5885 54.2157 82.9806 54.2157H83.1767H85.5296C86.51 54.2157 87.3434 53.3824 87.3434 52.402V46.0294C87.4414 45.049 86.6571 44.2157 85.6277 44.2157ZM61.9022 44.5588C56.5591 44.5588 52.5395 40.4902 52.5395 35.049C52.5395 29.6078 56.51 25.5392 61.9022 25.5392C67.3434 25.5392 71.314 29.6078 71.314 35.049C71.314 40.4902 67.3434 44.5588 61.9022 44.5588ZM39.3532 15.8333H30.7748C29.9904 15.8333 29.3532 16.3235 29.0591 17.0098L20.5787 40.3922L12.1473 17.0098C11.9022 16.2745 11.2159 15.8333 10.4316 15.8333H1.80417C0.529656 15.8333 -0.352697 17.1569 0.137499 18.3333L14.3532 53.1373C14.6473 53.8235 15.2846 54.2647 16.0199 54.2647H25.1865C25.9218 54.2647 26.6081 53.8235 26.8532 53.1373L41.0689 18.3333C41.51 17.1078 40.6767 15.8333 39.3532 15.8333ZM194.794 25.5392C197.441 25.5392 199.794 26.5686 201.51 28.2843C202.196 28.9706 203.324 28.9706 204.01 28.3333L209.5 23.2843C210.285 22.598 210.285 21.3725 209.549 20.6373C205.873 17.0588 200.677 14.902 194.843 14.902C183.03 14.902 174.108 23.5784 174.108 35C174.108 46.4706 182.981 55.098 194.843 55.098C200.677 55.098 205.873 52.9412 209.549 49.3627C210.285 48.6274 210.285 47.451 209.5 46.7157L204.01 41.6667C203.275 41.0294 202.196 41.0294 201.51 41.7157C199.745 43.4314 197.343 44.5098 194.647 44.4608C189.402 44.3627 185.285 39.902 185.432 34.6569C185.481 29.4608 189.451 25.5392 194.794 25.5392ZM150.481 14.902C138.667 14.902 129.745 23.5784 129.745 35C129.745 46.4706 138.618 55.098 150.53 55.098C156.559 55.098 161.853 52.9412 165.677 49.3627C166.51 48.5784 166.363 47.2059 165.432 46.5686L160.137 42.8922C159.451 42.402 158.52 42.5 157.883 43.0392C156.265 44.5098 153.716 45.4902 150.775 45.4902C146.118 45.4902 142.687 42.7941 141.51 38.4804H169.353C170.285 38.4804 171.069 37.7451 171.167 36.8137C171.216 36.1765 171.216 35.5882 171.216 35.098C171.167 23.5294 162.245 14.902 150.481 14.902ZM141.559 31.2745C142.834 27.0588 146.167 24.4118 150.432 24.4118C154.647 24.4118 158.177 27.0588 159.304 31.2745H141.559ZM126.853 44.2157H126.314C123.814 44.2157 122.392 42.8431 122.392 40.4412V1.81373C122.392 0.833333 121.559 0 120.579 0H113.226C112.245 0 111.412 0.833333 111.412 1.81373V42.3039C111.412 50.1961 115.922 54.2647 124.745 54.2647H126.853C127.834 54.2647 128.667 53.4314 128.667 52.451V46.0294C128.667 45.049 127.883 44.2157 126.853 44.2157ZM231.216 14.902C220.088 14.902 211.118 23.9216 211.118 35C211.118 46.1274 220.137 55.098 231.216 55.098C242.343 55.098 251.314 46.0784 251.314 35C251.363 23.9216 242.343 14.902 231.216 14.902ZM231.216 52.402C221.608 52.402 213.863 44.6569 213.863 35.049C213.863 25.4412 221.608 17.6961 231.216 17.6961C240.824 17.6961 248.569 25.4902 248.569 35.049C248.569 44.6078 240.824 52.402 231.216 52.402ZM276.069 15.8333H270.236C260.285 15.8333 255.186 20.4902 255.186 29.5588V52.451C255.186 53.4314 256.02 54.2647 257 54.2647H264.402C265.383 54.2647 266.216 53.4314 266.216 52.451V30.7353C266.216 27.549 268.03 25.8333 271.363 25.8333H276.167C277.147 25.8333 277.981 25 277.981 24.0196V17.6471C277.883 16.6176 277.098 15.8333 276.069 15.8333Z" fill="#4F008C"/>
</svg>
