<svg width="353" height="76" viewBox="0 0 353 76" fill="none" xmlns="http://www.w3.org/2000/svg">
<path d="M292.945 29.0182C279.991 29.0182 269.455 39.555 269.455 52.5091C269.455 65.4632 279.991 76 292.945 76C305.9 76 316.436 65.4632 316.436 52.5091C316.436 39.493 305.962 29.0182 292.945 29.0182Z" fill="#B34FC5"/>
<path d="M134.7 56.5537H134.016C130.847 56.5537 129.045 54.7982 129.045 51.726V2.31983C129.045 1.06587 127.989 0 126.746 0H117.426C116.183 0 115.127 1.06587 115.127 2.31983V54.1085C115.127 64.2029 120.843 69.4069 132.028 69.4069H134.7C135.942 69.4069 136.999 68.341 136.999 67.087V58.8736C136.999 57.6196 135.942 56.5537 134.7 56.5537ZM108.54 56.5537H108.23C106.055 56.5537 104.315 54.7982 104.315 52.6038V22.5713C104.315 21.3174 103.259 20.2515 102.016 20.2515H92.6333C91.3906 20.2515 90.3343 21.3174 90.3343 22.5713V25.6435C86.7304 21.5682 81.6352 19.0602 75.6079 19.0602C62.2486 19.0602 52.1204 30.1578 52.1204 44.7665C52.1204 59.4379 62.2486 70.4727 75.6079 70.4727C82.3808 70.4727 87.911 67.2751 91.6392 62.1966C93.7518 66.8989 98.3499 69.3442 105.185 69.3442H105.433H108.416C109.659 69.3442 110.715 68.2783 110.715 67.0243V58.8736C110.839 57.6196 109.845 56.5537 108.54 56.5537ZM78.4662 56.9926C71.6934 56.9926 66.5982 51.7887 66.5982 44.8292C66.5982 37.8697 71.6312 32.6657 78.4662 32.6657C85.3634 32.6657 90.3964 37.8697 90.3964 44.8292C90.3964 51.7887 85.3634 56.9926 78.4662 56.9926ZM49.8835 20.2515H39.0096C38.0154 20.2515 37.2076 20.8785 36.8348 21.7563L26.0852 51.6633L15.3977 21.7563C15.087 20.8158 14.2171 20.2515 13.2229 20.2515H2.28693C0.671384 20.2515 -0.447072 21.9444 0.174292 23.4491L18.1939 67.9648C18.5667 68.8426 19.3745 69.4069 20.3065 69.4069H31.926C32.8581 69.4069 33.728 68.8426 34.0387 67.9648L52.0582 23.4491C52.6175 21.8817 51.5611 20.2515 49.8835 20.2515ZM246.918 32.6657C250.274 32.6657 253.256 33.9824 255.431 36.1768C256.301 37.0546 257.73 37.0546 258.6 36.2395L265.559 29.7816C266.553 28.9038 266.553 27.3364 265.621 26.3959C260.961 21.819 254.375 19.0602 246.98 19.0602C232.005 19.0602 220.697 30.1578 220.697 44.7665C220.697 59.4379 231.943 70.4727 246.98 70.4727C254.375 70.4727 260.961 67.714 265.621 63.137C266.553 62.1966 266.553 60.6918 265.559 59.7513L258.6 53.2934C257.668 52.4784 256.301 52.4784 255.431 53.3561C253.194 55.5506 250.149 56.9299 246.732 56.8672C240.083 56.7418 234.864 51.0363 235.05 44.3276C235.112 37.6816 240.145 32.6657 246.918 32.6657ZM190.747 19.0602C175.772 19.0602 164.463 30.1578 164.463 44.7665C164.463 59.4379 175.71 70.4727 190.809 70.4727C198.452 70.4727 205.162 67.714 210.009 63.137C211.065 62.1339 210.879 60.3783 209.698 59.5632L202.988 54.8609C202.118 54.2339 200.937 54.3593 200.129 55.049C198.079 56.9299 194.848 58.1839 191.12 58.1839C185.217 58.1839 180.867 54.7355 179.376 49.218H214.669C215.85 49.218 216.844 48.2776 216.968 47.0863C217.031 46.2712 217.031 45.5189 217.031 44.8919C216.968 30.0951 205.66 19.0602 190.747 19.0602ZM179.438 40.0014C181.053 34.6094 185.279 31.2237 190.685 31.2237C196.028 31.2237 200.502 34.6094 201.931 40.0014H179.438ZM160.797 56.5537H160.114C156.945 56.5537 155.143 54.7982 155.143 51.726V2.31983C155.143 1.06587 154.086 0 152.844 0H143.523C142.28 0 141.224 1.06587 141.224 2.31983V54.1085C141.224 64.2029 146.941 69.4069 158.125 69.4069H160.797C162.04 69.4069 163.096 68.341 163.096 67.087V58.8736C163.096 57.6196 162.102 56.5537 160.797 56.5537ZM293.086 19.0602C278.981 19.0602 267.61 30.5967 267.61 44.7665C267.61 58.999 279.043 70.4727 293.086 70.4727C307.191 70.4727 318.561 58.9363 318.561 44.7665C318.624 30.5967 307.191 19.0602 293.086 19.0602ZM293.086 67.0243C280.907 67.0243 271.089 57.118 271.089 44.8292C271.089 32.5403 280.907 22.634 293.086 22.634C305.264 22.634 315.082 32.603 315.082 44.8292C315.082 57.0553 305.264 67.0243 293.086 67.0243ZM349.94 20.2515H342.546C329.932 20.2515 323.47 26.2078 323.47 37.807V67.087C323.47 68.341 324.527 69.4069 325.769 69.4069H335.152C336.395 69.4069 337.451 68.341 337.451 67.087V39.3117C337.451 35.2364 339.75 33.0419 343.975 33.0419H350.065C351.307 33.0419 352.364 31.9761 352.364 30.7221V22.5713C352.239 21.2547 351.245 20.2515 349.94 20.2515Z" fill="white"/>
</svg>
