<svg width="223" height="461" viewBox="0 0 223 461" fill="none" xmlns="http://www.w3.org/2000/svg">
<g clip-path="url(#clip0_9_144)">
<path d="M205.749 80.7632C100.867 80.7632 15.5565 166.041 15.5565 270.882C15.5565 375.723 100.867 461 205.749 461C311.133 461 396.443 376.225 396.443 270.882C396.443 166.041 311.133 80.7632 205.749 80.7632Z" fill="#B34FC5" fill-opacity="0.6"/>
<path d="M205.749 0C92.3362 0 0 92.3003 0 205.669C0 319.54 92.3362 411.338 205.749 411.338C319.664 411.338 411.498 319.038 411.498 205.669C412 92.3003 319.664 0 205.749 0ZM205.749 383.247C107.893 383.247 28.1023 303.989 28.1023 205.669C28.1023 107.851 107.893 28.0914 205.749 28.0914C304.107 28.0914 383.396 107.349 383.396 205.669C383.396 303.989 304.107 383.247 205.749 383.247Z" fill="white"/>
</g>
<defs>
<clipPath id="clip0_9_144">
<rect width="412" height="461" fill="white"/>
</clipPath>
</defs>
</svg>
